HIERARCHY
ROOT hip
{
	OFFSET 0.000000 0.000000 0.000000 
	CHANNELS 6 Xposition Yposition Zposition Xrotation Zrotation Yrotation
	JOINT abdomen
	{
		OFFSET 0.000000 3.402643 0.000000 
		CHANNELS 3 Xrotation Zrotation Yrotation
		JOINT chest
		{
			OFFSET 0.000000 8.438565 -0.680529 
			CHANNELS 3 Xrotation Zrotation Yrotation
			JOINT neck
			{
				OFFSET 0.000000 10.207942 -0.272212 
				CHANNELS 3 Xrotation Zrotation Yrotation
				JOINT head
				{
					OFFSET 0.000000 3.130431 0.000000 
					CHANNELS 3 Xrotation Zrotation Yrotation
					End Site
					{
						OFFSET 0.000000 3.130435 0.000000 
					}
				}
			}
			JOINT lCollar
			{
				OFFSET 3.470700 6.669187 -0.816635 
				CHANNELS 3 Yrotation Zrotation Xrotation
				JOINT lShldr
				{
					OFFSET 3.198488 0.000000 0.000000 
					CHANNELS 3 Zrotation Yrotation Xrotation
					JOINT lForeArm
					{
						OFFSET 10.139888 0.000000 0.000000 
						CHANNELS 3 Yrotation Zrotation Xrotation
						JOINT lHand
						{
							OFFSET 8.370511 0.000000 0.000000 
							CHANNELS 3 Zrotation Yrotation Xrotation
							End Site
							{
								OFFSET 4.083176 0.000000 0.000000 
							}
						}
					}
				}
			}
			JOINT rCollar
			{
				OFFSET -3.470700 6.669187 -0.816635 
				CHANNELS 3 Yrotation Zrotation Xrotation
				JOINT rShldr
				{
					OFFSET -3.198488 0.000000 0.000000 
					CHANNELS 3 Zrotation Yrotation Xrotation
					JOINT rForeArm
					{
						OFFSET -10.139888 0.000000 0.000000 
						CHANNELS 3 Yrotation Zrotation Xrotation
						JOINT rHand
						{
							OFFSET -8.370511 0.000000 0.000000 
							CHANNELS 3 Zrotation Yrotation Xrotation
							End Site
							{
								OFFSET -4.083176 0.000000 0.000000 
							}
						}
					}
				}
			}
		}
	}
	JOINT lThigh
	{
		OFFSET 5.308129 -1.633274 1.361059 
		CHANNELS 3 Xrotation Zrotation Yrotation
		JOINT lShin
		{
			OFFSET -2.041588 -20.007561 0.000000 
			CHANNELS 3 Xrotation Zrotation Yrotation
			JOINT lFoot
			{
				OFFSET 0.000000 -19.190928 -1.224953 
				CHANNELS 3 Xrotation Yrotation Zrotation
				End Site
				{
					OFFSET 0.000000 -2.449906 4.627600 
				}
			}
		}
	}
	JOINT rThigh
	{
		OFFSET -5.308129 -1.633274 1.361059 
		CHANNELS 3 Xrotation Zrotation Yrotation
		JOINT rShin
		{
			OFFSET 2.041588 -20.007561 0.000000 
			CHANNELS 3 Xrotation Zrotation Yrotation
			JOINT rFoot
			{
				OFFSET 0.000000 -19.190928 -1.224953 
				CHANNELS 3 Xrotation Yrotation Zrotation
				End Site
				{
					OFFSET 0.000000 -2.449906 4.627600 
				}
			}
		}
	}
}
MOTION
Frames: 13
Frame Time: 0.016667
0.954961 52.375629 -13.271650 -5.506520 -2.997628 -0.958786 36.513214 2.582369 0.369010 2.017259 1.249988 0.644684 -8.925915 0.318639 -0.048209 9.487292 -2.469310 -1.925828 -2.428777 -7.638358 -0.403614 -55.551296 7.275826 -13.236964 -33.513687 -5.000000 35.083084 -16.905914 11.122573 31.978361 12.245119 7.900015 -0.418314 55.597958 -10.496475 -17.089249 30.179586 5.000000 35.474094 9.894170 -13.209794 23.726234 -17.713615 11.922986 -2.869777 32.996151 -7.456468 -5.367995 -3.786683 5.972999 -2.286927 -13.539858 -6.364681 -3.226063 30.274725 6.072802 3.919327 -5.746677 -8.560814 6.085361 
0.880924 52.297348 -14.016435 -4.839399 -3.377649 -1.565539 36.690907 2.689701 0.456723 2.058026 1.249979 0.722790 -9.160195 0.173803 -0.026296 9.035423 -2.391538 -1.691241 -2.331331 -7.667631 -0.405123 -55.201096 8.600083 -14.296154 -33.536488 -5.000000 35.486835 -17.234503 11.994627 32.588604 12.672817 7.626878 -0.404181 54.966644 -10.906260 -17.144876 29.530704 5.000000 36.107349 10.125593 -13.628143 23.787409 -18.826708 12.655320 -2.140603 32.256687 -7.539286 -5.299906 -2.606969 5.780393 -2.323619 -14.851278 -6.131801 -3.368225 31.185171 6.209765 4.110338 -5.849342 -8.069392 6.446106 
0.806870 52.219090 -14.761227 -4.173065 -3.747263 -2.192394 36.887962 2.800393 0.535335 2.098512 1.240204 0.791133 -9.394531 0.019311 -0.002922 8.584046 -2.323479 -1.446896 -2.232566 -7.697286 -0.396961 -54.868591 9.925841 -15.350777 -33.553905 -5.000000 35.898113 -17.548372 12.872070 33.179691 13.100517 7.343987 -0.389533 54.334000 -11.305019 -17.191425 28.893732 5.000000 36.734032 10.371449 -14.040658 23.831030 -19.915188 13.394227 -1.427592 31.492937 -7.637805 -5.191776 -1.488076 5.598525 -2.327492 -16.137953 -5.896853 -3.534194 32.110790 6.312462 4.325904 -5.956787 -7.601303 6.817822 
0.658406 52.320179 -15.529965 -3.659142 -3.913528 -2.046252 36.974308 2.953559 0.745777 2.186770 1.152308 0.898543 -9.482502 -0.320100 0.038554 8.336225 -2.224968 -2.169746 -2.173630 -7.648524 -0.394447 -54.507885 11.020426 -16.142361 -33.100716 -5.000000 36.672638 -18.107306 14.032615 34.084412 13.341036 6.797812 -0.361242 54.149292 -12.411815 -17.873661 28.026581 5.000000 37.458202 10.745836 -14.620301 24.304415 -20.085531 13.748413 -1.172361 28.617077 -7.656400 -4.665265 0.811095 4.974107 -2.581631 -16.090992 -5.770397 -4.216020 32.545635 6.054083 4.211315 -6.129602 -7.623313 6.714378 
0.509907 52.421364 -16.298714 -3.135980 -4.089556 -1.899456 37.072178 3.098087 0.973869 2.265198 1.074178 1.015721 -9.580522 -0.648395 0.088223 8.085925 -2.126196 -2.892619 -2.114696 -7.599763 -0.391932 -54.179413 12.120274 -16.938078 -32.654491 -5.000000 37.443581 -18.639795 15.207988 34.978451 13.581778 6.241882 -0.331350 53.993042 -13.517364 -18.567183 27.180464 5.000000 38.162434 11.112706 -15.201124 24.783926 -20.269756 14.099096 -0.929627 25.758966 -7.685923 -4.125036 3.137378 4.339744 -2.779518 -15.998231 -5.622127 -4.917022 32.974468 5.815395 4.090487 -6.366187 -7.660639 6.558978 
0.306857 52.615574 -17.040850 -2.836049 -4.217713 -1.273275 37.125801 3.295875 1.260979 2.353333 0.986282 1.123132 -9.532389 -0.996001 0.140811 7.963129 -1.996993 -4.035854 -2.024876 -7.316943 -0.377341 -54.090061 13.048702 -17.561609 -31.960669 -5.000000 38.359871 -19.187395 16.469933 35.992008 13.635275 5.483482 -0.282541 54.233166 -15.055853 -19.610226 26.258745 5.000000 39.046619 11.217373 -15.751946 25.252071 -19.340069 14.214810 -0.688033 20.982620 -7.421332 -3.272190 5.900951 3.368633 -3.589899 -14.663960 -5.408556 -5.557466 31.753052 5.536410 3.736122 -6.698022 -7.528859 6.334778 
0.067415 52.871857 -17.765265 -2.689840 -4.306568 -0.333294 37.164993 3.531559 1.598545 2.451420 0.917914 1.240467 -9.386950 -1.353261 0.194854 7.921033 -1.847020 -5.471880 -1.914548 -6.868332 -0.354177 -54.173363 13.849525 -18.083067 -31.129858 -5.000000 39.349148 -19.711596 17.784023 37.075878 13.562775 4.576498 -0.234753 54.762608 -16.866535 -20.914825 25.291729 5.000000 40.053146 11.130646 -16.290173 25.740515 -17.689184 14.155437 -0.446592 14.965872 -6.870347 -2.260891 9.010832 2.184486 -4.718569 -12.469074 -5.116470 -6.177069 29.418184 5.223614 3.233012 -7.162424 -7.341380 5.990272 
-0.173832 53.105232 -18.462488 -2.636899 -4.335761 0.519050 37.176125 3.629936 1.979677 2.509928 0.820252 1.308802 -9.163200 -1.654048 0.230476 7.973905 -1.648012 -6.936610 -1.793797 -6.273433 -0.322360 -54.390083 14.443504 -18.437517 -30.273802 -5.000000 40.228806 -20.717422 19.203524 38.743202 13.422542 3.630501 -0.185819 55.352623 -18.716988 -22.181662 24.333319 5.000000 41.140514 11.174022 -16.715107 26.167410 -15.707248 14.057587 0.157155 8.889575 -6.255287 -1.275802 11.532374 1.283309 -5.782920 -9.980945 -4.815012 -6.514716 26.365982 4.977602 2.737212 -7.572524 -7.303063 5.817279 
-0.422242 53.246902 -19.051064 -2.971453 -4.120482 0.988690 37.075809 3.230752 2.579652 2.441195 0.683527 1.210997 -8.674579 -1.714905 0.219935 8.426496 -1.226465 -8.546921 -1.621864 -5.132391 -0.263478 -55.055111 14.278821 -18.088024 -29.343885 -5.000000 40.633968 -23.747160 21.239573 42.561489 12.989785 2.528459 -0.128750 55.985603 -20.704933 -23.179966 23.410416 5.000000 42.521301 11.721315 -16.727762 26.344322 -12.468814 13.825879 2.362800 2.643686 -5.719482 -0.538722 12.077047 1.543743 -6.976264 -6.386393 -4.589662 -5.762632 20.472769 5.115613 2.137370 -7.683480 -7.767546 6.437396 
-0.670641 53.388519 -19.639555 -3.301557 -3.895243 1.448607 36.970104 2.840797 3.160380 2.371795 0.537042 1.113333 -8.176459 -1.774300 0.219046 8.863639 -0.797845 -10.157295 -1.451129 -3.991345 -0.203812 -55.734093 14.108216 -17.739258 -28.439817 -5.000000 41.000969 -26.652925 23.843756 45.000000 12.558142 1.436168 -0.071893 56.668316 -22.694880 -24.220068 22.483845 5.000000 43.922394 12.260764 -16.734856 26.538359 -9.244428 13.450957 4.589999 -3.603307 -5.106154 0.096289 12.578431 1.894884 -8.135489 -2.781790 -4.401367 -5.013594 14.576693 5.174291 1.560441 -7.805500 -8.237696 7.096045 
-0.885858 53.484398 -20.254131 -3.292303 -3.124599 0.919265 36.456352 1.998571 2.555921 2.203637 0.322203 1.572303 -7.814635 -1.806190 0.204126 9.333539 -0.181888 -11.396552 -1.439954 -3.396194 -0.182870 -55.816757 12.545256 -16.315140 -27.889040 -5.000000 41.245613 -28.177446 25.540226 43.053627 12.255001 1.075321 -0.053246 56.385963 -23.682934 -24.117695 22.508162 5.000000 43.898224 13.179900 -14.505100 25.039543 -7.790234 12.904414 6.836998 -4.373276 -4.772562 0.180438 11.021516 4.055315 -8.775947 -1.171334 -4.712600 -3.772526 9.965944 4.958230 1.072081 -6.084807 -8.710504 7.432344 
-1.092741 53.568806 -20.875172 -3.199030 -2.216789 0.146375 35.849602 1.017343 1.646828 2.013596 0.078102 2.158215 -7.492131 -1.826963 0.197396 9.796333 0.476635 -12.539433 -1.458067 -2.928067 -0.158714 -55.799824 10.639955 -14.626690 -27.416824 -5.000000 41.461250 -29.760283 26.865555 38.276039 11.991173 0.899774 -0.044173 55.850368 -24.423420 -23.706795 22.765415 5.000000 43.511669 14.041885 -11.665982 23.188335 -6.824092 12.318582 9.060172 -3.771630 -4.530669 0.159646 9.012133 6.614511 -9.260607 -0.098253 -5.173148 -2.412747 5.688132 4.643303 0.626310 -3.854837 -9.181779 7.756437 
-1.278949 53.659843 -21.407419 -3.426491 -1.269361 -0.937919 35.282814 -0.036764 0.682558 1.831311 -0.195258 2.275383 -6.934820 -1.712555 0.170217 10.382003 1.101976 -13.400798 -1.789004 -2.694253 -0.136880 -55.754765 9.859857 -13.882933 -27.000265 -5.000000 41.861908 -30.702818 27.323370 34.861958 12.000931 0.890022 -0.043669 55.309803 -24.278467 -22.882378 23.135046 5.000000 42.959408 14.666568 -9.980157 21.336828 -5.810646 11.786608 10.910986 -1.855866 -4.309389 0.023013 7.108076 8.367772 -9.262049 0.604547 -5.652322 -1.738960 2.905378 4.259883 0.346574 -2.064785 -8.860770 7.688105 
